{"title":"[Mofos] Tarra White - Cute  Redhead (hard)","uid":11128253,"size":165098000,"categoryP":"porn","categoryS":"movie_clips","magnet":"?xt=urn:btih:ee5656d2d959555eda0f35049b0f9be615a20ee7&amp;dn=%5BMofos%5D+Tarra+White+-+Cute++Redhead+%28hard%29&amp;tr=udp%3A%2F%2Ftracker.openbittorrent.com%3A80&amp;tr=udp%3A%2F%2Fopen.demonii.com%3A1337&amp;tr=udp%3A%2F%2Ftracker.coppersurfer.tk%3A6969&amp;tr=udp%3A%2F%2Fexodus.desync.com%3A6969","seeders":0,"leechers":0,"uploader":"supertongo","files":1,"time":1411997746,"description":"[Mofos] Tarra White video in ipod/psp/mobile compatible resolution\n\n:::Media info:::\nGeneral\nFormat                         : MPEG-4\nFormat profile                 : Base Media / Version 2\nCodec ID                       : mp42\nFile size                      : 157 MiB\nDuration                       : 39mn 55s\nOverall bit rate mode          : Variable\nOverall bit rate               : 551 Kbps\n\n\nVideo\nID                             : 1\nFormat                         : AVC\nFormat/Info                    : Advanced Video Codec\nFormat profile                 : &lt;a class=&quot;__cf_email__&quot; href=&quot;/cdn-cgi/l/email-protection&quot; data-cfemail=&quot;a3e1c2d0c6cfcacdc6e3ef908d93&quot;&gt;[email&amp;#160;protected]&lt;/a&gt;&lt;script data-cfhash='f9e31' type=&quot;text/javascript&quot;&gt;\n/* &lt;![CDATA[ */!function(){try{var t=&quot;currentScript&quot;in document?document.currentScript:function(){for(var t=document.getElementsByTagName(&quot;script&quot;),e=t.length;e--;)if(t[e].getAttribute(&quot;data-cfhash&quot;))return t[e]}();if(t&amp;&amp;t.previousSibling){var e,r,n,i,c=t.previousSibling,a=c.getAttribute(&quot;data-cfemail&quot;);if(a){for(e=&quot;&quot;,r=parseInt(a.substr(0,2),16),n=2;a.length-n;n+=2)i=parseInt(a.substr(n,2),16)^r,e+=String.fromCharCode(i);e=document.createTextNode(e),c.parentNode.replaceChild(e,c)}t.parentNode.removeChild(t);}}catch(u){}}()/* ]]&gt; */&lt;/script&gt;\nFormat settings, CABAC         : No\nFormat settings, ReFrames      : 2 frames\nCodec ID                       : avc1\nCodec ID/Info                  : Advanced Video Coding\nDuration                       : 39mn 55s\nDuration_FirstFrame            : 67ms\nBit rate                       : 393 Kbps\nWidth                          : 480 pixels\nHeight                         : 272 pixels\nDisplay aspect ratio           : 16:9\nFrame rate mode                : Constant\nFrame rate                     : 29.970 fps\nColor space                    : YUV\nChroma subsampling             : 4:2:0\nBit depth                      : 8 bits\nScan type                      : Progressive\nBits/(Pixel*Frame)             : 0.100\nStream size                    : 112 MiB (71%)\n\nAudio\nID                             : 2\nFormat                         : AAC\nFormat/Info                    : Advanced Audio Codec\nFormat profile                 : LC\nCodec ID                       : 40\nDuration                       : 39mn 55s\nBit rate mode                  : Variable\nBit rate                       : 128 Kbps\nMaximum bit rate               : 164 Kbps\nChannel(s)                     : 2 channels\nChannel positions              : Front: L R\nSampling rate                  : 48.0 KHz\nCompression mode               : Lossy\nStream size                    : 36.5 MiB (23%)\nLanguage                       : English\n\n &lt;a href=&quot;\nhttp://bayimg.com/NaACMAAGl&quot; rel=&quot;nofollow&quot; target=&quot;_NEW&quot;&gt;\nhttp://bayimg.com/NaACMAAGl&lt;/a&gt;","torrent":{"xt":"urn:btih:ee5656d2d959555eda0f35049b0f9be615a20ee7","amp;dn":"%5BMofos%5D+Tarra+White+-+Cute++Redhead+%28hard%29","amp;tr":["udp%3A%2F%2Ftracker.openbittorrent.com%3A80","udp%3A%2F%2Fopen.demonii.com%3A1337","udp%3A%2F%2Ftracker.coppersurfer.tk%3A6969","udp%3A%2F%2Fexodus.desync.com%3A6969"],"infoHash":"ee5656d2d959555eda0f35049b0f9be615a20ee7","infoHashBuffer":{"type":"Buffer","data":[238,86,86,210,217,89,85,94,218,15,53,4,155,15,155,230,21,162,14,231]},"announce":[],"urlList":[]}}